<svg xmlns="http://www.w3.org/2000/svg" width="201" height="75" viewBox="0 0 201 75">
  <defs>
    <clipPath id="clip-logo">
      <rect width="201" height="75"/>
    </clipPath>
  </defs>
  <g id="logo" clip-path="url(#clip-logo)">
    <g id="Page-2" transform="translate(0 2)">
      <g id="logo-2">
        <path id="Fill-9" d="M2.39,17.638H201.255L185.892,73.685,17.752,63.443Z" transform="translate(-0.255 -1.881)" fill="#b53133"/>
        <path id="Fill-10" d="M17.5,64.624,5.452,28.708,0,29.283,20.066,73.231l80.611-3.54Z" transform="translate(0 -3.062)" fill="#6d1e1f"/>
        <path id="Fill-11" d="M207.966,16.405l1.7-10.323L111.44,16.405Z" transform="translate(-11.887 -0.649)" fill="#6d1e1f"/>
        <path id="Fill-12" d="M210.307,17.021l1.13-5.165-98.561,5.165Z" transform="translate(-12.04 -1.265)" fill="#912829"/>
        <path id="Fill-13" d="M17.593,64.05,3.936,23.329.9,23.487,18.639,68.426l82.229.7Z" transform="translate(-0.096 -2.488)" fill="#912829"/>
        <path id="Fill-14" d="M49.981,43.661a4.446,4.446,0,0,0,2.805-.928,3.473,3.473,0,0,0,1.2-2.929,3.132,3.132,0,0,0-.948-2.683,3.8,3.8,0,0,0-2.27-.679H46.8l-.783,7.219ZM42.638,31.036h8.951q4.457,0,6.809,2.022a6.055,6.055,0,0,1,1.526,2.207,9.35,9.35,0,0,1,.618,3.692,11.014,11.014,0,0,1-.845,4.291,8.808,8.808,0,0,1-2,3.093,9.18,9.18,0,0,1-2.724,1.733,12.363,12.363,0,0,1-4.868,1.032H45.443l-.99,9.572Q44.329,60,41.854,60h-1.4Q38.1,60,38.1,58.68l2.723-25.993a1.634,1.634,0,0,1,1.816-1.651Z" transform="translate(-4.064 -3.31)" fill="#912829"/>
        <path id="Fill-16" d="M65.667,43.092l-.082-2.311q0-.659,1.361-1.074A12.04,12.04,0,0,1,70.37,39.3a.95.95,0,0,1,.826.412,1.943,1.943,0,0,1,.35.846q.062.433.146,1.423,2.1-3.135,4.826-3.136a1.7,1.7,0,0,1,1.939,1.9,6.391,6.391,0,0,1-.6,2.435q-.6,1.4-1.053,1.4a2.682,2.682,0,0,1-.618-.187,3.051,3.051,0,0,0-1.073-.186,4.464,4.464,0,0,0-3.59,2.1l-1.32,13.2q-.124,1.319-2.6,1.32H66.451a3.365,3.365,0,0,1-1.753-.371,1.067,1.067,0,0,1-.6-.908l1.4-13.533a29.125,29.125,0,0,0,.165-2.928" transform="translate(-6.837 -4.143)" fill="#912829"/>
        <path id="Fill-18" d="M90.727,56.252a3.743,3.743,0,0,0,3.363-2.083,11.96,11.96,0,0,0,1.216-5.962q0-4.538-3.219-4.539a3.771,3.771,0,0,0-3.4,2.084,12.047,12.047,0,0,0-1.217,6q0,4.5,3.259,4.5M81.28,52.044a16.484,16.484,0,0,1,2.393-9.118A8.429,8.429,0,0,1,87.2,39.934a12.4,12.4,0,0,1,5.384-1.092q4.414,0,6.683,2.311t2.269,6.766q0,6.271-3.011,9.715a10.438,10.438,0,0,1-8.293,3.445q-4.415,0-6.684-2.31T81.28,52.044" transform="translate(-8.67 -4.143)" fill="#912829"/>
        <path id="Fill-20" d="M117,56.252a3.738,3.738,0,0,0,3.363-2.083,11.934,11.934,0,0,0,1.218-5.962q0-4.538-3.219-4.539a3.769,3.769,0,0,0-3.4,2.084,12.042,12.042,0,0,0-1.218,6q0,4.5,3.259,4.5m-9.447-4.208a16.488,16.488,0,0,1,2.393-9.118,8.435,8.435,0,0,1,3.527-2.992,12.41,12.41,0,0,1,5.384-1.092q4.415,0,6.684,2.311t2.269,6.766q0,6.271-3.011,9.715a10.437,10.437,0,0,1-8.293,3.445q-4.415,0-6.684-2.31t-2.269-6.725" transform="translate(-11.473 -4.143)" fill="#912829"/>
        <path id="Fill-22" d="M133.464,40.15q0-1.032,2.6-1.032h1.361q2.022,0,2.228.867l1.651,7.632c.083.359.191,1.162.33,2.415s.233,2.111.289,2.578h.165q1.032-3.424,1.692-4.993L147,39.985q.374-.866,2.393-.867h1.031q2.353,0,2.353.949a1.744,1.744,0,0,1-.165.7l-8.581,19.226q-.371.867-2.393.867h-1.321q-2.021,0-2.228-.867l-4.537-19.226a5.407,5.407,0,0,1-.083-.618" transform="translate(-14.236 -4.173)" fill="#912829"/>
        <path id="Fill-24" d="M161.741,34.525h-1.155a3.366,3.366,0,0,1-1.754-.371,1.071,1.071,0,0,1-.6-.909l.372-3.383q.125-1.32,2.6-1.32h1.156a3.36,3.36,0,0,1,1.753.371,1.069,1.069,0,0,1,.6.907l-.371,3.384q-.123,1.32-2.6,1.32m-1.527,3.465h1.154a3.369,3.369,0,0,1,1.755.372,1.072,1.072,0,0,1,.6.908q-1.528,14.109-1.527,14.522,0,1.363,1.237,1.362a2.645,2.645,0,0,0,.743-.123,4.074,4.074,0,0,1,.453-.124c.221,0,.33.206.33.618a16.7,16.7,0,0,1-.288,2.312,2.134,2.134,0,0,1-1.278,1.588,5.193,5.193,0,0,1-2.352.556q-4.993,0-4.992-5.239l1.568-15.431q.123-1.319,2.6-1.32" transform="translate(-16.645 -3.045)" fill="#912829"/>
        <path id="Fill-26" d="M177.048,56.134q1.694,0,3.219-2.393.494-5.61.578-6.209t.494-2.7a4.091,4.091,0,0,0-2.723-1.113,3.537,3.537,0,0,0-3.238,2.084,13.347,13.347,0,0,0-1.134,6.209q0,4.126,2.8,4.126m8.046,4.95q-3.921,0-4.744-3.094a7.464,7.464,0,0,1-2.414,2.27,6.166,6.166,0,0,1-3.2.866,5.85,5.85,0,0,1-4.869-2.33,10.557,10.557,0,0,1-1.816-6.622,16.492,16.492,0,0,1,2.558-9.613,7.743,7.743,0,0,1,6.6-3.671,7.154,7.154,0,0,1,4.991,2.186,3.365,3.365,0,0,1,.784-1.568,3.641,3.641,0,0,1,1.9-.371h.495q2.392,0,2.393,1.031l-.743,7.179q-.783,7.177-.783,7.59,0,1.322,1.237,1.321a2.645,2.645,0,0,0,.743-.123,4.027,4.027,0,0,1,.453-.124q.331,0,.331.618a16.731,16.731,0,0,1-.289,2.311,2.132,2.132,0,0,1-1.278,1.588,5.189,5.189,0,0,1-2.352.557" transform="translate(-17.926 -4.148)" fill="#912829"/>
        <path id="Fill-28" d="M48.869,42.548a4.448,4.448,0,0,0,2.805-.928,3.474,3.474,0,0,0,1.2-2.929,3.125,3.125,0,0,0-.948-2.682,3.788,3.788,0,0,0-2.269-.681H45.692l-.783,7.22ZM41.525,29.924h8.952q4.457,0,6.809,2.021a6.048,6.048,0,0,1,1.525,2.208,9.339,9.339,0,0,1,.619,3.693,11.02,11.02,0,0,1-.845,4.29,8.8,8.8,0,0,1-2,3.093,9.182,9.182,0,0,1-2.724,1.734,12.373,12.373,0,0,1-4.867,1.032H44.33l-.991,9.572q-.123,1.319-2.6,1.319h-1.4q-2.352,0-2.351-1.319l2.722-25.993a1.633,1.633,0,0,1,1.815-1.65Z" transform="translate(-3.945 -3.192)" fill="#f2f1f0"/>
        <path id="Fill-30" d="M64.555,41.979l-.083-2.31q0-.661,1.362-1.074a12.009,12.009,0,0,1,3.424-.412.947.947,0,0,1,.825.412,1.941,1.941,0,0,1,.35.846c.042.288.089.764.146,1.424q2.1-3.135,4.826-3.136a1.7,1.7,0,0,1,1.939,1.9,6.372,6.372,0,0,1-.6,2.434c-.4.935-.749,1.4-1.052,1.4a2.717,2.717,0,0,1-.618-.186A3.045,3.045,0,0,0,74,43.091a4.465,4.465,0,0,0-3.59,2.105l-1.32,13.2q-.124,1.32-2.6,1.319H65.338a3.358,3.358,0,0,1-1.753-.371,1.067,1.067,0,0,1-.6-.909l1.4-13.533a29.24,29.24,0,0,0,.165-2.928" transform="translate(-6.719 -4.024)" fill="#f2f1f0"/>
        <path id="Fill-32" d="M89.615,55.139a3.742,3.742,0,0,0,3.363-2.084,11.939,11.939,0,0,0,1.217-5.961q0-4.538-3.219-4.538a3.767,3.767,0,0,0-3.4,2.084,12.037,12.037,0,0,0-1.218,6q0,4.5,3.26,4.5m-9.448-4.208a16.494,16.494,0,0,1,2.393-9.118,8.428,8.428,0,0,1,3.528-2.991,12.385,12.385,0,0,1,5.384-1.093q4.414,0,6.684,2.31t2.269,6.767q0,6.27-3.012,9.715a10.439,10.439,0,0,1-8.292,3.445q-4.416,0-6.684-2.309t-2.269-6.726" transform="translate(-8.551 -4.024)" fill="#f2f1f0"/>
        <path id="Fill-34" d="M115.891,55.139a3.738,3.738,0,0,0,3.363-2.084,11.924,11.924,0,0,0,1.218-5.961q0-4.538-3.218-4.538a3.768,3.768,0,0,0-3.4,2.084,12.039,12.039,0,0,0-1.217,6q0,4.5,3.258,4.5m-9.447-4.208a16.49,16.49,0,0,1,2.393-9.118,8.43,8.43,0,0,1,3.528-2.991,12.38,12.38,0,0,1,5.383-1.093q4.414,0,6.684,2.31t2.27,6.767q0,6.27-3.012,9.715a10.437,10.437,0,0,1-8.293,3.445q-4.415,0-6.684-2.309t-2.269-6.726" transform="translate(-11.354 -4.024)" fill="#f2f1f0"/>
        <path id="Fill-36" d="M132.353,39.038q0-1.032,2.6-1.032h1.361q2.021,0,2.228.867l1.652,7.633c.083.359.19,1.162.329,2.415s.233,2.111.289,2.578h.164q1.03-3.424,1.693-4.992l3.217-7.633q.371-.866,2.392-.867h1.032q2.352,0,2.352.949a1.762,1.762,0,0,1-.164.7l-8.581,19.226q-.371.865-2.394.866H139.2q-2.021,0-2.227-.866l-4.537-19.226a5.328,5.328,0,0,1-.082-.619" transform="translate(-14.118 -4.054)" fill="#f2f1f0"/>
        <path id="Fill-38" d="M160.627,33.412h-1.153a3.357,3.357,0,0,1-1.755-.372,1.068,1.068,0,0,1-.6-.908l.371-3.382q.125-1.321,2.6-1.321h1.156A3.364,3.364,0,0,1,163,27.8a1.07,1.07,0,0,1,.6.907l-.372,3.383q-.123,1.322-2.6,1.321M159.1,36.877h1.155a3.356,3.356,0,0,1,1.754.372,1.07,1.07,0,0,1,.6.907q-1.528,14.111-1.527,14.522,0,1.362,1.238,1.362a2.607,2.607,0,0,0,.742-.124,3.872,3.872,0,0,1,.454-.123q.33,0,.33.618a16.845,16.845,0,0,1-.288,2.311,2.131,2.131,0,0,1-1.278,1.587,5.189,5.189,0,0,1-2.353.557q-4.991,0-4.992-5.239L156.5,38.2q.123-1.32,2.6-1.321" transform="translate(-16.526 -2.926)" fill="#f2f1f0"/>
        <path id="Fill-40" d="M175.936,55.02q1.691,0,3.218-2.393.5-5.611.578-6.209t.494-2.7A4.088,4.088,0,0,0,177.5,42.6a3.538,3.538,0,0,0-3.239,2.083,13.351,13.351,0,0,0-1.134,6.209q0,4.127,2.805,4.126m8.044,4.951q-3.92,0-4.744-3.094a7.47,7.47,0,0,1-2.414,2.27,6.176,6.176,0,0,1-3.2.866,5.852,5.852,0,0,1-4.868-2.33,10.555,10.555,0,0,1-1.817-6.623,16.493,16.493,0,0,1,2.558-9.613,7.743,7.743,0,0,1,6.6-3.671,7.158,7.158,0,0,1,4.992,2.186,3.365,3.365,0,0,1,.783-1.568,3.637,3.637,0,0,1,1.9-.372h.495q2.391,0,2.393,1.033l-.742,7.179q-.784,7.175-.785,7.59,0,1.322,1.238,1.32a2.612,2.612,0,0,0,.743-.124,3.917,3.917,0,0,1,.454-.123c.22,0,.329.206.329.618a16.7,16.7,0,0,1-.288,2.311,2.129,2.129,0,0,1-1.278,1.588,5.185,5.185,0,0,1-2.353.557" transform="translate(-17.807 -4.029)" fill="#f2f1f0"/>
        <path id="Fill-42" d="M198.03,0,99.764,10.328H2.39v1.657H99.851L198.03,1.666Z" transform="translate(-0.255)" fill="#eb8d4c"/>
      </g>
    </g>
  </g>
</svg>
